<svg width="9" height="9" viewBox="0 0 9 9" fill="none" xmlns="http://www.w3.org/2000/svg">
<path d="M0.935499 4.11226C0.75836 4.11276 0.584981 4.1634 0.435422 4.25832C0.285862 4.35324 0.166233 4.48857 0.0903747 4.64864C0.0145167 4.80872 -0.0144703 4.987 0.00676735 5.16286C0.028005 5.33872 0.0985994 5.50498 0.210383 5.64239L2.59335 8.56153C2.67832 8.66703 2.78723 8.75073 2.91104 8.80569C3.03485 8.86065 3.16999 8.88527 3.30522 8.87751C3.59447 8.86198 3.8556 8.70725 4.02209 8.45285L8.97213 0.480822C8.97294 0.4795 8.97378 0.478177 8.97465 0.476875C9.0211 0.405561 9.00604 0.264237 8.91017 0.175456C8.88383 0.151075 8.85279 0.132344 8.81894 0.120416C8.78509 0.108488 8.74916 0.103616 8.71336 0.106099C8.67755 0.108582 8.64264 0.118369 8.61076 0.134856C8.57888 0.151343 8.55072 0.174181 8.528 0.201964C8.52623 0.204148 8.5244 0.206299 8.52251 0.208418L3.53034 5.84883C3.51134 5.8703 3.48827 5.88777 3.46246 5.90024C3.43666 5.91271 3.40863 5.91994 3.38001 5.92148C3.35139 5.92303 3.32274 5.91888 3.29574 5.90926C3.26874 5.89965 3.24392 5.88476 3.22272 5.86547L1.56591 4.35776C1.39384 4.20002 1.16893 4.11244 0.935499 4.11226Z" fill="white"/>
</svg>
